<svg width="22" height="22" viewBox="0 0 22 22" fill="none" xmlns="http://www.w3.org/2000/svg">
<path d="M20.0687 6.75683C19.56 7.30499 18.1538 8.75241 16.1096 10.3291C13.9665 11.9827 11.5391 13.3156 11.4365 13.3715C11.2999 13.4467 11.1486 13.4842 10.9974 13.4842C10.8461 13.4842 10.6949 13.4467 10.5574 13.3715C10.4556 13.3156 8.02831 11.9827 5.88423 10.3291C3.84006 8.75241 2.4339 7.30499 1.92423 6.75591L1.38431 6.17841C1.13773 7.44983 0.914062 9.12183 0.914062 11.001C0.914062 15.0875 1.97373 18.1987 2.01956 18.3288C2.12223 18.6258 2.37065 18.8495 2.67681 18.921C2.83998 18.9595 6.72848 19.8587 10.9983 19.8587C15.4157 19.8587 19.1695 18.9577 19.3271 18.9192C19.6296 18.8458 19.8735 18.624 19.9761 18.3297C20.0211 18.2005 21.0816 15.1122 21.0816 11.0001C21.0816 9.10533 20.8598 7.43791 20.6151 6.17383L20.0706 6.75683H20.0687Z" fill="white" fill-opacity="0.72"/>
<path d="M3.27208 5.50674C3.647 5.91008 5.02017 7.34191 7.01025 8.87641C8.51908 10.0406 10.2186 11.0599 11.0033 11.5127C11.7879 11.059 13.4911 10.0387 14.9953 8.87733C16.9863 7.34283 18.3586 5.91099 18.7317 5.50858L20.1003 4.04466C20.0324 3.82191 19.9875 3.69174 19.9792 3.66791C19.8766 3.37549 19.6328 3.15549 19.3321 3.08216C19.1744 3.04366 15.4298 2.14258 11.0023 2.14258C6.65367 2.14258 2.83758 3.04274 2.67717 3.08124C2.37192 3.15458 2.12625 3.37733 2.0245 3.67341C2.01625 3.69816 1.97225 3.82649 1.90625 4.04649L3.27208 5.50858V5.50674Z" fill="white" fill-opacity="0.72"/>
</svg>
