<svg width="20" height="19" viewBox="0 0 20 19" fill="none" xmlns="http://www.w3.org/2000/svg">
<path d="M10 0C4.47716 0 0 4.36303 0 9.74059C0 14.045 2.86659 17.6984 6.83894 18.9886C7.33774 19.0765 7.69231 18.5781 7.69231 18.2028C7.69231 17.9741 7.69832 17.6984 7.69231 16.8892C4.90986 17.4756 4.03846 15.5756 4.03846 15.5756C3.58173 14.4496 3.02885 14.1271 3.02885 14.1271C2.12139 13.5231 3.09495 13.5407 3.09495 13.5407C4.09856 13.6052 4.61538 14.4496 4.61538 14.4496C5.38462 15.7632 7.12139 15.6342 7.69231 15.3879C7.69231 14.7897 7.75841 14.3558 7.92668 14.0802C4.78365 13.5407 3.07091 11.7696 3.07692 9.31836C3.08293 7.86988 3.59375 6.74394 4.42308 5.91121C4.0625 5.46552 3.81611 3.9408 4.55529 3.00252C6.41226 3.00252 7.51803 4.31026 7.51803 4.31026C7.51803 4.31026 8.38942 3.9408 9.99399 3.9408C11.6046 3.9408 12.47 4.29266 12.47 4.29266C12.47 4.29266 13.5817 3.00252 15.4387 3.00252C16.1779 3.9408 15.9315 5.46552 15.643 5.88189C16.4363 6.69702 16.9231 7.82297 16.9231 9.31836C16.9231 11.7696 15.2163 13.5407 12.0793 14.0743C12.2776 14.3675 12.3077 14.778 12.3077 15.3879C12.3077 16.6898 12.3077 17.8802 12.3077 18.2028C12.3077 18.5781 12.6563 19.0824 13.1671 18.9886C17.1394 17.6926 20 14.045 20 9.74059C20 4.36303 15.5228 0 10 0Z" fill="white" fill-opacity="0.72"/>
</svg>
